<svg width="20" height="20" viewBox="0 0 20 20" fill="none" xmlns="http://www.w3.org/2000/svg">
<path d="M15 8.95835C14.6583 8.95835 14.375 8.67502 14.375 8.33335V6.66669C14.375 4.04169 13.6333 2.29169 10 2.29169C6.36667 2.29169 5.625 4.04169 5.625 6.66669V8.33335C5.625 8.67502 5.34167 8.95835 5 8.95835C4.65833 8.95835 4.375 8.67502 4.375 8.33335V6.66669C4.375 4.25002 4.95833 1.04169 10 1.04169C15.0417 1.04169 15.625 4.25002 15.625 6.66669V8.33335C15.625 8.67502 15.3417 8.95835 15 8.95835Z" fill="#C2CACE"/>
<path d="M10.0001 16.0417C8.50841 16.0417 7.29175 14.825 7.29175 13.3333C7.29175 11.8417 8.50841 10.625 10.0001 10.625C11.4917 10.625 12.7084 11.8417 12.7084 13.3333C12.7084 14.825 11.4917 16.0417 10.0001 16.0417ZM10.0001 11.875C9.20008 11.875 8.54175 12.5333 8.54175 13.3333C8.54175 14.1333 9.20008 14.7917 10.0001 14.7917C10.8001 14.7917 11.4584 14.1333 11.4584 13.3333C11.4584 12.5333 10.8001 11.875 10.0001 11.875Z" fill="#C2CACE"/>
<path d="M14.1667 18.9583H5.83341C2.15841 18.9583 1.04175 17.8416 1.04175 14.1666V12.5C1.04175 8.82498 2.15841 7.70831 5.83341 7.70831H14.1667C17.8417 7.70831 18.9584 8.82498 18.9584 12.5V14.1666C18.9584 17.8416 17.8417 18.9583 14.1667 18.9583ZM5.83341 8.95831C2.85008 8.95831 2.29175 9.52498 2.29175 12.5V14.1666C2.29175 17.1416 2.85008 17.7083 5.83341 17.7083H14.1667C17.1501 17.7083 17.7084 17.1416 17.7084 14.1666V12.5C17.7084 9.52498 17.1501 8.95831 14.1667 8.95831H5.83341Z" fill="#C2CACE"/>
</svg>
