<svg width="122" height="20" viewBox="0 0 122 20" fill="none" xmlns="http://www.w3.org/2000/svg">
<path d="M-4.38988e-05 19.3701L2.70396 0.000115514H9.25596C10.452 0.000115514 11.492 0.234116 12.376 0.702116C13.26 1.15278 13.9446 1.80278 14.43 2.65212C14.9153 3.50145 15.158 4.51545 15.158 5.69412C15.158 6.89012 14.8633 7.96478 14.274 8.91812C13.702 9.87145 12.896 10.6168 11.856 11.1541C10.816 11.6914 9.59396 11.9601 8.18996 11.9601H3.61396L2.57396 19.3701H-4.38988e-05ZM3.95196 9.62012H8.34596C9.17796 9.62012 9.90596 9.44678 10.53 9.10012C11.1713 8.75345 11.674 8.28545 12.038 7.69612C12.402 7.10678 12.584 6.42212 12.584 5.64212C12.584 4.61945 12.2633 3.81345 11.622 3.22412C10.998 2.63478 10.1573 2.34012 9.09996 2.34012H4.96596L3.95196 9.62012ZM18.4313 19.6821C17.6339 19.6821 16.8886 19.5435 16.1953 19.2661C15.5193 18.9715 14.9733 18.5468 14.5573 17.9921C14.1413 17.4201 13.9333 16.7095 13.9333 15.8601C13.9333 15.0455 14.1326 14.3261 14.5313 13.7021C14.9473 13.0608 15.5279 12.5408 16.2733 12.1421C17.0359 11.7261 17.9286 11.4401 18.9513 11.2841L24.2553 10.4261L24.0473 12.4541L19.3673 13.2601C18.4833 13.4161 17.7813 13.7108 17.2613 14.1441C16.7413 14.5601 16.4813 15.0888 16.4813 15.7301C16.4813 16.3195 16.6979 16.7875 17.1313 17.1341C17.5819 17.4635 18.1626 17.6281 18.8733 17.6281C19.6879 17.6281 20.4246 17.4375 21.0833 17.0561C21.7593 16.6748 22.3139 16.1635 22.7473 15.5221C23.1979 14.8635 23.4753 14.1441 23.5793 13.3641L24.0213 10.0361C24.1253 9.41212 24.0473 8.90078 23.7873 8.50212C23.5273 8.08612 23.1633 7.78278 22.6953 7.59212C22.2446 7.38412 21.7593 7.28012 21.2393 7.28012C20.3899 7.28012 19.6273 7.49678 18.9513 7.93012C18.2926 8.36345 17.7813 8.90945 17.4173 9.56812L15.3893 8.34612C15.7359 7.70478 16.2039 7.14145 16.7933 6.65612C17.3999 6.15345 18.0933 5.76345 18.8733 5.48612C19.6706 5.19145 20.5113 5.04412 21.3953 5.04412C22.4353 5.04412 23.3626 5.26078 24.1773 5.69412C25.0093 6.12745 25.6333 6.72545 26.0493 7.48812C26.4826 8.25078 26.6299 9.13478 26.4913 10.1401L25.1913 19.3701H22.7993L23.1633 16.7181L23.6833 16.9521C23.3193 17.5068 22.8686 17.9921 22.3313 18.4081C21.7939 18.8068 21.1959 19.1188 20.5373 19.3441C19.8786 19.5695 19.1766 19.6821 18.4313 19.6821ZM27.2397 19.3701L29.2157 5.35612H31.5817L31.2177 8.08612L30.8537 7.80012C31.3044 6.91612 31.9457 6.24012 32.7777 5.77212C33.6097 5.28678 34.5197 5.04412 35.5077 5.04412C36.5304 5.04412 37.4144 5.28678 38.1597 5.77212C38.9051 6.25745 39.4511 6.92478 39.7977 7.77412C40.1617 8.60612 40.2657 9.55945 40.1097 10.6341L38.8877 19.3701H36.4437L37.6397 10.8421C37.7784 9.78478 37.5877 8.94412 37.0677 8.32012C36.5477 7.69612 35.8024 7.38412 34.8317 7.38412C34.1557 7.38412 33.5317 7.54012 32.9597 7.85212C32.4051 8.14678 31.9371 8.57145 31.5557 9.12612C31.1917 9.68078 30.9491 10.3395 30.8277 11.1021L29.6837 19.3701H27.2397ZM47.6158 19.6821C46.3331 19.6821 45.1978 19.3875 44.2098 18.7981C43.2218 18.1915 42.4504 17.3768 41.8958 16.3541C41.3411 15.3141 41.0638 14.1441 41.0638 12.8441C41.0638 11.7521 41.2544 10.7381 41.6358 9.80212C42.0171 8.84878 42.5458 8.01678 43.2218 7.30612C43.9151 6.59545 44.7124 6.04078 45.6138 5.64212C46.5324 5.24345 47.5118 5.04412 48.5518 5.04412C49.4878 5.04412 50.3458 5.20878 51.1258 5.53812C51.9231 5.85012 52.6078 6.29212 53.1798 6.86412C53.7518 7.43612 54.1591 8.09478 54.4018 8.84012L52.1918 9.82812C51.9318 9.10012 51.4811 8.51078 50.8398 8.06012C50.1984 7.60945 49.4358 7.38412 48.5518 7.38412C47.5984 7.38412 46.7491 7.64412 46.0038 8.16412C45.2584 8.66678 44.6778 9.33412 44.2618 10.1661C43.8458 10.9981 43.6378 11.8908 43.6378 12.8441C43.6378 13.7108 43.8111 14.4821 44.1578 15.1581C44.5044 15.8341 44.9898 16.3715 45.6138 16.7701C46.2378 17.1515 46.9484 17.3421 47.7458 17.3421C48.6471 17.3421 49.4531 17.1081 50.1638 16.6401C50.8744 16.1721 51.4291 15.5568 51.8278 14.7941L53.9338 15.9641C53.5698 16.6921 53.0758 17.3335 52.4518 17.8881C51.8278 18.4428 51.0998 18.8848 50.2678 19.2141C49.4358 19.5261 48.5518 19.6821 47.6158 19.6821ZM59.136 19.6821C58.3386 19.6821 57.5933 19.5435 56.9 19.2661C56.224 18.9715 55.678 18.5468 55.262 17.9921C54.846 17.4201 54.638 16.7095 54.638 15.8601C54.638 15.0455 54.8373 14.3261 55.236 13.7021C55.652 13.0608 56.2326 12.5408 56.978 12.1421C57.7406 11.7261 58.6333 11.4401 59.656 11.2841L64.96 10.4261L64.752 12.4541L60.072 13.2601C59.188 13.4161 58.486 13.7108 57.966 14.1441C57.446 14.5601 57.186 15.0888 57.186 15.7301C57.186 16.3195 57.4026 16.7875 57.836 17.1341C58.2866 17.4635 58.8673 17.6281 59.578 17.6281C60.3926 17.6281 61.1293 17.4375 61.788 17.0561C62.464 16.6748 63.0186 16.1635 63.452 15.5221C63.9026 14.8635 64.18 14.1441 64.284 13.3641L64.726 10.0361C64.83 9.41212 64.752 8.90078 64.492 8.50212C64.232 8.08612 63.868 7.78278 63.4 7.59212C62.9493 7.38412 62.464 7.28012 61.944 7.28012C61.0946 7.28012 60.332 7.49678 59.656 7.93012C58.9973 8.36345 58.486 8.90945 58.122 9.56812L56.094 8.34612C56.4406 7.70478 56.9086 7.14145 57.498 6.65612C58.1046 6.15345 58.798 5.76345 59.578 5.48612C60.3753 5.19145 61.216 5.04412 62.1 5.04412C63.14 5.04412 64.0673 5.26078 64.882 5.69412C65.714 6.12745 66.338 6.72545 66.754 7.48812C67.1873 8.25078 67.3346 9.13478 67.196 10.1401L65.896 19.3701H63.504L63.868 16.7181L64.388 16.9521C64.024 17.5068 63.5733 17.9921 63.036 18.4081C62.4986 18.8068 61.9006 19.1188 61.242 19.3441C60.5833 19.5695 59.8813 19.6821 59.136 19.6821ZM67.9444 19.3701L69.9204 5.35612H72.3124L71.9484 7.93012L71.7144 7.56612C72.1651 6.76878 72.7544 6.17945 73.4824 5.79812C74.2104 5.39945 75.0598 5.20012 76.0304 5.20012H76.8884L76.5504 7.48812H75.3284C74.3404 7.48812 73.5084 7.80878 72.8324 8.45012C72.1564 9.07412 71.7231 10.0188 71.5324 11.2841L70.4144 19.3701H67.9444ZM82.6143 19.6821C81.3316 19.6821 80.1703 19.3875 79.1303 18.7981C78.1076 18.2088 77.2929 17.3941 76.6863 16.3541C76.0796 15.3141 75.7763 14.1181 75.7763 12.7661C75.7763 11.6915 75.9669 10.6948 76.3483 9.77612C76.7469 8.84012 77.2929 8.01678 77.9863 7.30612C78.6796 6.59545 79.4856 6.04078 80.4043 5.64212C81.3403 5.24345 82.3369 5.04412 83.3943 5.04412C84.6943 5.04412 85.8556 5.33878 86.8783 5.92812C87.9183 6.51745 88.7416 7.33212 89.3483 8.37212C89.9549 9.39478 90.2583 10.5735 90.2583 11.9081C90.2583 12.9828 90.0589 13.9881 89.6603 14.9241C89.2616 15.8601 88.7069 16.6921 87.9963 17.4201C87.2856 18.1308 86.4709 18.6855 85.5523 19.0841C84.6336 19.4828 83.6543 19.6821 82.6143 19.6821ZM82.5883 17.3421C83.5589 17.3421 84.4256 17.0908 85.1883 16.5881C85.9509 16.0855 86.5576 15.4268 87.0083 14.6121C87.4589 13.7801 87.6843 12.8701 87.6843 11.8821C87.6843 11.0154 87.5023 10.2441 87.1383 9.56812C86.7743 8.89212 86.2629 8.36345 85.6043 7.98212C84.9629 7.58345 84.2263 7.38412 83.3943 7.38412C82.4583 7.38412 81.6003 7.63545 80.8203 8.13812C80.0576 8.62345 79.4509 9.27345 79.0003 10.0881C78.5669 10.9028 78.3503 11.8128 78.3503 12.8181C78.3503 13.6848 78.5323 14.4648 78.8963 15.1581C79.2603 15.8341 79.7629 16.3715 80.4043 16.7701C81.0456 17.1515 81.7736 17.3421 82.5883 17.3421ZM90.7222 19.3701L92.6982 5.35612H95.0642L94.7002 8.08612L94.3362 7.80012C94.7868 6.91612 95.4282 6.24012 96.2602 5.77212C97.0922 5.28678 98.0022 5.04412 98.9902 5.04412C100.013 5.04412 100.897 5.28678 101.642 5.77212C102.387 6.25745 102.933 6.92478 103.28 7.77412C103.644 8.60612 103.748 9.55945 103.592 10.6341L102.37 19.3701H99.9262L101.122 10.8421C101.261 9.78478 101.07 8.94412 100.55 8.32012C100.03 7.69612 99.2848 7.38412 98.3142 7.38412C97.6382 7.38412 97.0142 7.54012 96.4422 7.85212C95.8875 8.14678 95.4195 8.57145 95.0382 9.12612C94.6742 9.68078 94.4315 10.3395 94.3102 11.1021L93.1662 19.3701H90.7222ZM108.576 19.6821C107.779 19.6821 107.034 19.5435 106.34 19.2661C105.664 18.9715 105.118 18.5468 104.702 17.9921C104.286 17.4201 104.078 16.7095 104.078 15.8601C104.078 15.0455 104.278 14.3261 104.676 13.7021C105.092 13.0608 105.673 12.5408 106.418 12.1421C107.181 11.7261 108.074 11.4401 109.096 11.2841L114.4 10.4261L114.192 12.4541L109.512 13.2601C108.628 13.4161 107.926 13.7108 107.406 14.1441C106.886 14.5601 106.626 15.0888 106.626 15.7301C106.626 16.3195 106.843 16.7875 107.276 17.1341C107.727 17.4635 108.308 17.6281 109.018 17.6281C109.833 17.6281 110.57 17.4375 111.228 17.0561C111.904 16.6748 112.459 16.1635 112.892 15.5221C113.343 14.8635 113.62 14.1441 113.724 13.3641L114.166 10.0361C114.27 9.41212 114.192 8.90078 113.932 8.50212C113.672 8.08612 113.308 7.78278 112.84 7.59212C112.39 7.38412 111.904 7.28012 111.384 7.28012C110.535 7.28012 109.772 7.49678 109.096 7.93012C108.438 8.36345 107.926 8.90945 107.562 9.56812L105.534 8.34612C105.881 7.70478 106.349 7.14145 106.938 6.65612C107.545 6.15345 108.238 5.76345 109.018 5.48612C109.816 5.19145 110.656 5.04412 111.54 5.04412C112.58 5.04412 113.508 5.26078 114.322 5.69412C115.154 6.12745 115.778 6.72545 116.194 7.48812C116.628 8.25078 116.775 9.13478 116.636 10.1401L115.336 19.3701H112.944L113.308 16.7181L113.828 16.9521C113.464 17.5068 113.014 17.9921 112.476 18.4081C111.939 18.8068 111.341 19.1188 110.682 19.3441C110.024 19.5695 109.322 19.6821 108.576 19.6821ZM118.373 19.3701L118.815 16.2501H121.363L120.895 19.3701H118.373Z" fill="white"/>
</svg>
